<?xml version="1.0" encoding="UTF-8" standalone="no"?>
<!-- Created with Inkscape (http://www.inkscape.org/) -->

<svg
   xmlns:dc="http://purl.org/dc/elements/1.1/"
   xmlns:cc="http://creativecommons.org/ns#"
   xmlns:rdf="http://www.w3.org/1999/02/22-rdf-syntax-ns#"
   xmlns:svg="http://www.w3.org/2000/svg"
   xmlns="http://www.w3.org/2000/svg"
   xmlns:xlink="http://www.w3.org/1999/xlink"
   xmlns:sodipodi="http://sodipodi.sourceforge.net/DTD/sodipodi-0.dtd"
   xmlns:inkscape="http://www.inkscape.org/namespaces/inkscape"
   version="1.1"
   width="381.8515"
   height="180.60349"
   id="svg2985"
   xml:space="preserve"
   sodipodi:docname="SQLite370.svg"
   inkscape:version="0.92.4 (5da689c313, 2019-01-14)"><sodipodi:namedview
     pagecolor="#ffffff"
     bordercolor="#666666"
     borderopacity="1"
     objecttolerance="10"
     gridtolerance="10"
     guidetolerance="10"
     inkscape:pageopacity="0"
     inkscape:pageshadow="2"
     inkscape:window-width="1200"
     inkscape:window-height="1883"
     id="namedview16"
     showgrid="false"
     inkscape:zoom="1.975009"
     inkscape:cx="237.81248"
     inkscape:cy="78.049352"
     inkscape:window-x="1920"
     inkscape:window-y="139"
     inkscape:window-maximized="1"
     inkscape:current-layer="svg2985" /><title
     id="title2998">SQLite</title><metadata
     id="metadata2991"><rdf:RDF><cc:Work
         rdf:about=""><dc:format>image/svg+xml</dc:format><dc:type
           rdf:resource="http://purl.org/dc/dcmitype/StillImage" /><dc:title>SQLite</dc:title></cc:Work></rdf:RDF></metadata><defs
     id="defs2989"><linearGradient
       x1="0"
       y1="0"
       x2="1"
       y2="0"
       id="linearGradient3027"
       gradientUnits="userSpaceOnUse"
       gradientTransform="matrix(-4.02e-6,-91.8907,-91.8907,4.02e-6,85.8809,161.434)"
       spreadMethod="pad"><stop
         id="stop3029"
         style="stop-color:#97d9f6;stop-opacity:1"
         offset="0" /><stop
         id="stop3031"
         style="stop-color:#0f80cc;stop-opacity:1"
         offset="0.92024499" /><stop
         id="stop3033"
         style="stop-color:#0f80cc;stop-opacity:1"
         offset="1" /></linearGradient><linearGradient
       x1="-15.614694"
       y1="-9.1082983"
       x2="-6.7410073"
       y2="-9.1082983"
       id="linearGradient5421"
       xlink:href="#linearGradient3027"
       gradientUnits="userSpaceOnUse"
       gradientTransform="matrix(-4.02e-7,-9.18907,-9.18907,4.02e-7,8.58809,16.1434)"
       spreadMethod="pad" /><linearGradient
       x1="-15.614694"
       y1="-9.1082983"
       x2="-6.7410073"
       y2="-9.1082983"
       id="linearGradient2995"
       xlink:href="#linearGradient3027"
       gradientUnits="userSpaceOnUse"
       gradientTransform="matrix(-5.025e-7,11.486337,-11.486337,-5.025e-7,-30.839638,202.18698)"
       spreadMethod="pad" /></defs><path
     d="m 173.38863,54.863602 c -4.08054,0 -7.3985,1.207876 -9.94223,3.62257 -2.54374,2.41681 -3.83411,5.58469 -3.83411,9.466283 0,2.011615 0.32048,3.845742 0.95192,5.526403 0.63143,1.684046 1.61402,3.244131 2.93507,4.653815 1.32105,1.410951 3.96526,3.327586 7.90619,5.764386 4.83574,2.9521 8.00033,5.34796 9.51917,7.21869 1.51989,1.86914 2.27402,3.82797 2.27402,5.870152 0,2.73432 -0.90009,4.916959 -2.74998,6.557639 -1.85306,1.64143 -4.33122,2.45912 -7.40379,2.45912 -3.24075,0 -6.06371,-1.1424 -8.48792,-3.41103 -2.42422,-2.27191 -3.64796,-5.276899 -3.67546,-9.043211 h -1.5072 V 107.219 h 1.5072 c 0.46009,-1.29451 1.09682,-1.95672 1.93028,-1.95672 0.40086,0 1.34008,0.27648 2.80286,0.79326 3.55911,1.26636 6.48149,1.87739 8.77878,1.87739 3.95892,0 7.33822,-1.38651 10.15378,-4.20429 2.81132,-2.81651 4.23074,-6.213899 4.23074,-10.180221 0,-3.07554 -0.93711,-5.81188 -2.77643,-8.19705 -1.83931,-2.38804 -5.4164,-5.165739 -10.76194,-8.355709 -4.59987,-2.763637 -7.58571,-5.014484 -8.96388,-6.769183 -1.38028,-1.752169 -2.08892,-3.690363 -2.08892,-5.817266 0,-2.300468 0.84509,-4.148244 2.512,-5.526407 1.66691,-1.379221 3.85103,-2.062485 6.58408,-2.062485 3.07575,0 5.63958,0.912782 7.66822,2.74998 2.02652,1.840372 3.19844,4.390661 3.54324,7.668219 h 1.5072 V 55.392444 h -1.40143 c -0.17134,0.603938 -0.33,0.989993 -0.47596,1.163454 -0.14173,0.172402 -0.41461,0.264421 -0.8197,0.264421 -0.48759,0 -1.35701,-0.205191 -2.59133,-0.608169 -2.64421,-0.89057 -5.08218,-1.348548 -7.32447,-1.348548 z m 49.26167,0 c -4.97218,0 -9.48637,1.171915 -13.56481,3.516802 -4.08477,2.340656 -7.31812,5.590922 -9.70425,9.730704 -2.38508,4.139457 -3.56969,8.535821 -3.56969,13.221061 0,6.29449 2.06037,11.90222 6.2139,16.817182 4.15564,4.911999 9.13522,7.972729 14.91335,9.148969 1.32105,0.68834 3.21113,2.46525 5.68506,5.34131 2.78806,3.24571 5.14669,5.58669 7.08649,6.98072 1.93768,1.39476 4.02978,2.41702 6.24034,3.09373 2.21267,0.67385 4.60516,1.0048 7.19225,1.0048 3.13287,0 5.93785,-0.5445 8.4086,-1.66585 l -0.55529,-1.375 c -1.43422,0.51732 -2.96363,0.76683 -4.57448,0.76683 -2.18624,0 -4.39574,-0.72092 -6.61053,-2.16826 -2.21162,-1.45093 -4.97747,-4.2192 -8.27639,-8.30282 -1.55056,-1.95672 -2.62094,-3.19125 -3.22594,-3.67546 6.32179,-1.23453 11.52031,-4.29843 15.57441,-9.201849 4.05305,-4.901322 6.08169,-10.495082 6.08169,-16.764302 0,-7.443894 -2.64844,-13.699879 -7.90619,-18.800352 -5.26199,-5.101003 -11.7329,-7.668215 -19.40852,-7.668215 z m 30.75219,0 0.0793,1.612969 c 3.31055,0 5.16467,0.975186 5.57929,2.935075 0.15442,0.701245 0.22528,1.996063 0.23798,3.86055 l -0.0264,35.670415 c -0.0275,2.664099 -0.40721,4.365069 -1.13702,5.103329 -0.73086,0.73298 -1.96623,1.19201 -3.75478,1.37499 l -0.0793,1.61297 h 32.99976 l 0.84615,-8.091289 h -1.5072 c -0.43048,2.204219 -1.4173,3.783239 -2.98796,4.680259 -1.57489,0.90357 -4.35977,1.34855 -8.38215,1.34855 h -3.12017 c -3.6194,0 -5.71361,-1.30847 -6.26678,-3.93988 -0.11423,-0.52059 -0.15337,-1.078739 -0.15865,-1.692299 l 0.13221,-36.067045 c -8.5e-4,-2.659866 0.33528,-4.442276 1.03124,-5.314866 0.70336,-0.869417 1.97152,-1.355952 3.80766,-1.480759 l -0.0793,-1.612969 h -17.21382 z m -30.22335,1.956717 c 5.60785,0 10.18657,2.208657 13.72346,6.663414 3.53584,4.456352 5.28843,10.564049 5.28843,18.297956 0,7.32858 -1.77797,13.19662 -5.34131,17.610442 -3.56334,4.412449 -8.306,6.610529 -14.19942,6.610529 -5.66179,0 -10.2532,-2.26662 -13.77634,-6.822069 -3.51998,-4.555452 -5.26198,-10.469812 -5.26198,-17.742652 0,-7.473604 1.76316,-13.45619 5.31486,-17.927764 3.54959,-4.466814 8.30283,-6.689856 14.2523,-6.689856 z m 75.88889,7.668219 c -0.8049,0 -1.41836,0.271825 -1.8774,0.819705 -0.46961,0.545757 -0.61345,1.20681 -0.44951,2.009601 0.15865,0.778769 0.59759,1.461298 1.29566,2.036044 0.69384,0.574204 1.44268,0.872589 2.24758,0.872589 0.77846,0 1.37182,-0.298368 1.79807,-0.872589 0.42624,-0.574746 0.55634,-1.257275 0.39663,-2.036044 -0.16394,-0.802791 -0.58807,-1.463844 -1.24278,-2.009601 -0.66211,-0.54788 -1.3898,-0.819705 -2.16825,-0.819705 z m 21.76186,5.473518 c -1.36759,5.261127 -4.33228,8.108205 -8.88455,8.567249 l 0.0529,1.5072 h 5.31487 l -0.10577,17.821986 c 0.008,3.046969 0.10154,5.075609 0.3173,6.108129 0.52356,2.47191 2.13759,3.72833 4.83891,3.72833 3.90815,0 8.00773,-2.38063 12.29559,-7.13937 l -1.29567,-1.110569 c -3.09584,3.133819 -5.83313,4.706699 -8.2235,4.706699 -1.46912,0 -2.37979,-0.84488 -2.72353,-2.512 -0.0941,-0.40488 -0.13221,-0.87798 -0.13221,-1.42788 l 0.0529,-20.175325 h 8.11773 l -0.0793,-2.406233 h -8.01197 v -7.668216 h -1.53364 z m 31.38679,6.716298 c -4.54064,0 -8.23407,2.204217 -11.10569,6.584085 -2.8568,4.38728 -3.74103,9.24807 -2.61777,14.596052 0.66106,3.132539 1.97788,5.560349 3.99276,7.271579 2.01172,1.71049 4.56391,2.56488 7.61534,2.56488 2.84094,0 6.79668,-0.71932 8.46147,-2.16825 1.66903,-1.44808 3.2069,-3.79402 4.62737,-7.007159 l -1.13701,-1.1899 c -2.26556,4.168339 -6.83793,6.266789 -10.28598,6.266789 -4.74054,0 -7.64389,-2.60085 -8.7259,-7.773991 -0.14067,-0.66031 -0.24538,-1.3697 -0.31731,-2.11537 5.63958,-0.89289 9.91368,-2.47403 12.79799,-4.75958 2.88219,-2.28681 5.77602,-4.71082 5.23554,-7.27157 -0.32154,-1.521698 -1.11163,-2.718151 -2.32691,-3.622573 -1.23114,-0.904 -4.42747,-1.374992 -6.2139,-1.374992 z m -49.63185,0.185095 -9.78359,2.247582 v 1.74518 l 3.38459,-0.423074 c 1.63942,0 2.60402,0.742393 2.90864,2.221142 0.10259,0.49489 0.16711,1.18989 0.18509,2.06248 l -0.10577,15.997481 c -0.0275,2.21373 -0.27288,3.50061 -0.76682,3.88699 -0.49817,0.38711 -1.81181,0.58172 -3.93987,0.58172 l -0.0529,1.5072 h 15.52153 l -0.0264,-1.5072 c -2.15662,0 -3.55488,-0.17017 -4.17786,-0.5024 -0.6124,-0.3301 -1.03441,-0.93086 -1.21634,-1.85095 -0.14067,-0.66306 -0.20201,-1.80556 -0.21153,-3.384589 l 0.0529,-22.581562 h -1.77162 z m 47.1463,2.961519 c 0.94451,0 1.85729,0.364792 2.77642,1.084127 0.90643,0.716794 1.45855,1.513864 1.63941,2.379794 0.88528,4.25306 -2.88536,7.1934 -11.37011,8.83166 -0.24221,-3.10124 0.29509,-5.91647 1.66585,-8.46147 1.36018,-2.542576 3.13181,-3.834111 5.28843,-3.834111 z"
     id="SQLite"
     style="fill:#003b57;fill-opacity:1;fill-rule:nonzero;stroke:none;stroke-width:0.84614784"
     inkscape:connector-curvature="0" /><path
     d="m 121.6315,17.03623 -99.506,0 C 15.4565,17.03623 10,22.49373 10,29.16248 l 0,109.7365 c 0,6.66837 5.4565,12.125 12.1255,12.125 l 65.53725,0 C 86.918884,118.41477 98.054499,55.130402 121.6315,17.03623 z"
     id="solid-background"
     style="fill:#0f80cc;fill-opacity:1;fill-rule:nonzero;stroke:none" /><g
     id="g4547"><path
       style="fill:url(#linearGradient2995);fill-opacity:1;fill-rule:nonzero;stroke:none"
       id="gradient-background"
       d="m 118.0165,20.57373 -95.891,0 c -4.735375,0 -8.588875,3.8525 -8.588875,8.58875 l 0,101.73013 c 21.71725,-8.335 54.31221,-15.5269 76.849585,-15.20027 4.52893,-23.680901 17.83941,-70.090424 27.63029,-95.11861 z" /><path
       style="fill:#003b57;fill-opacity:1;fill-rule:nonzero;stroke:none"
       id="feather"
       d="m 144.8415,13.44498 c -6.815,-6.0775 -15.06625,-3.63625 -23.21,3.59125 -1.20875,1.07375 -2.415,2.265 -3.615,3.5375 -13.93125,14.77875 -26.8625,42.15375 -30.88,63.06 1.565,3.17375 2.7875,7.22375 3.5925,10.3175 0.20625,0.79375 0.3925,1.53875 0.54125,2.1725 0.35375,1.499875 0.54375,2.4725 0.54375,2.4725 0,0 -0.125,-0.472625 -0.6375,-1.95875 -0.0975,-0.285 -0.20625,-0.59625 -0.335,-0.9625 -0.055,-0.15125 -0.13125,-0.335 -0.215,-0.53125 -0.90875,-2.1125 -3.4225,-6.57125 -4.52875,-8.5125 -0.94625,2.79125 -1.7825,5.4025 -2.4825,7.765 3.19375,5.8435 5.14,15.85775 5.14,15.85775 0,0 -0.16875,-0.649 -0.97125,-2.91412 -0.7125,-2.00338 -4.26125,-8.22113 -5.101875,-9.674755 -1.438,5.308505 -2.009375,8.892505 -1.494125,9.765125 1.000375,1.69088 1.953125,4.60838 2.78975,7.83488 1.89,7.26862 3.20375,16.11725 3.20375,16.11725 0,0 0.0425,0.58637 0.11375,1.48875 -0.2625,6.104 -0.105,12.43262 0.3675,18.15287 0.62625,7.57225 1.805,14.07713 3.3075,17.5585 l 1.02,-0.55612 c -2.20625,-6.85888 -3.1025,-15.84763 -2.71,-26.21388 0.59375,-15.84512 4.24,-34.95362 10.9775,-54.87 11.3825,-30.065 27.175,-54.1875 41.62875,-65.7075 -13.17375,11.8975 -31.00375,50.40875 -36.34125,64.67 -5.97625,15.97 -10.21125,30.95638 -12.76375,45.31475 4.40375,-13.46087 18.6425,-19.247 18.6425,-19.247 0,0 6.98375,-8.61287 15.145,-20.91775 -4.88875,1.115 -12.91625,3.02375 -15.605,4.15375 -3.96625,1.66375 -5.035,2.23125 -5.035,2.23125 0,0 12.8475,-7.82375 23.87,-11.36625 15.15875,-23.875 31.67375,-57.7925 15.0425,-72.62875" /></g><g
     aria-label="DOWNLOAD"
     transform="matrix(1.0984278,0,0,1.0984278,-35.55358,-3.1090113)"
     style="font-style:normal;font-weight:normal;font-size:29.33333397px;line-height:1.25;font-family:sans-serif;letter-spacing:0px;word-spacing:0px;fill:#003b57;fill-opacity:1;stroke:none"
     id="flowRoot18"><path
       d="m 180.35352,25.541667 v 13.048177 h 1.97656 q 3.38021,0 5.15625,-1.675781 1.79036,-1.675781 1.79036,-4.869792 0,-3.179687 -1.77604,-4.841146 -1.77604,-1.661458 -5.17057,-1.661458 z m -5.51433,-4.167969 h 5.81511 q 4.86979,0 7.24739,0.701823 2.39193,0.6875 4.09636,2.348958 1.5039,1.446615 2.23437,3.33724 0.73047,1.890625 0.73047,4.282552 0,2.420573 -0.73047,4.325521 -0.73047,1.890625 -2.23437,3.33724 -1.71875,1.661458 -4.125,2.363281 -2.40625,0.6875 -7.21875,0.6875 h -5.81511 z"
       style="font-style:normal;font-variant:normal;font-weight:bold;font-stretch:normal;font-family:sans-serif;-inkscape-font-specification:'sans-serif Bold';fill:#003b57;fill-opacity:1"
       id="path834" /><path
       d="m 208.95638,24.983073 q -2.52083,0 -3.91016,1.861979 -1.38932,1.86198 -1.38932,5.242188 0,3.365885 1.38932,5.227865 1.38933,1.861979 3.91016,1.861979 2.53516,0 3.92448,-1.861979 1.38932,-1.86198 1.38932,-5.227865 0,-3.380208 -1.38932,-5.242188 -1.38932,-1.861979 -3.92448,-1.861979 z m 0,-3.996094 q 5.15625,0 8.07813,2.950521 2.92187,2.950521 2.92187,8.14974 0,5.184896 -2.92187,8.135417 -2.92188,2.950521 -8.07813,2.950521 -5.14193,0 -8.07812,-2.950521 -2.92188,-2.950521 -2.92188,-8.135417 0,-5.199219 2.92188,-8.14974 2.93619,-2.950521 8.07812,-2.950521 z"
       style="font-style:normal;font-variant:normal;font-weight:bold;font-stretch:normal;font-family:sans-serif;-inkscape-font-specification:'sans-serif Bold';fill:#003b57;fill-opacity:1"
       id="path836" /><path
       d="m 222.29102,21.373698 h 5.28515 l 3.69532,15.540365 3.66666,-15.540365 h 5.31381 l 3.66666,15.540365 3.69532,-15.540365 h 5.24218 l -5.04166,21.384115 h -6.35938 l -3.88151,-16.256511 -3.83854,16.256511 h -6.35938 z"
       style="font-style:normal;font-variant:normal;font-weight:bold;font-stretch:normal;font-family:sans-serif;-inkscape-font-specification:'sans-serif Bold';fill:#003b57;fill-opacity:1"
       id="path838" /><path
       d="m 256.47982,21.373698 h 6.15885 l 7.77735,14.666667 V 21.373698 h 5.22786 v 21.384115 h -6.15885 l -7.77735,-14.666667 v 14.666667 h -5.22786 z"
       style="font-style:normal;font-variant:normal;font-weight:bold;font-stretch:normal;font-family:sans-serif;-inkscape-font-specification:'sans-serif Bold';fill:#003b57;fill-opacity:1"
       id="path840" /><path
       d="m 281.05794,21.373698 h 5.51433 v 17.216146 h 9.68229 v 4.167969 h -15.19662 z"
       style="font-style:normal;font-variant:normal;font-weight:bold;font-stretch:normal;font-family:sans-serif;-inkscape-font-specification:'sans-serif Bold';fill:#003b57;fill-opacity:1"
       id="path842" /><path
       d="m 308.47201,24.983073 q -2.52084,0 -3.91016,1.861979 -1.38932,1.86198 -1.38932,5.242188 0,3.365885 1.38932,5.227865 1.38932,1.861979 3.91016,1.861979 2.53515,0 3.92448,-1.861979 1.38932,-1.86198 1.38932,-5.227865 0,-3.380208 -1.38932,-5.242188 -1.38933,-1.861979 -3.92448,-1.861979 z m 0,-3.996094 q 5.15625,0 8.07812,2.950521 2.92188,2.950521 2.92188,8.14974 0,5.184896 -2.92188,8.135417 -2.92187,2.950521 -8.07812,2.950521 -5.14193,0 -8.07813,-2.950521 -2.92187,-2.950521 -2.92187,-8.135417 0,-5.199219 2.92187,-8.14974 2.9362,-2.950521 8.07813,-2.950521 z"
       style="font-style:normal;font-variant:normal;font-weight:bold;font-stretch:normal;font-family:sans-serif;-inkscape-font-specification:'sans-serif Bold';fill:#003b57;fill-opacity:1"
       id="path844" /><path
       d="m 335.80013,38.86198 h -8.6224 l -1.36067,3.895833 h -5.54297 l 7.92057,-21.384115 h 6.57422 l 7.92057,21.384115 h -5.54297 z m -7.2474,-3.967448 h 5.85808 l -2.92188,-8.507813 z"
       style="font-style:normal;font-variant:normal;font-weight:bold;font-stretch:normal;font-family:sans-serif;-inkscape-font-specification:'sans-serif Bold';fill:#003b57;fill-opacity:1"
       id="path846" /><path
       d="m 351.02539,25.541667 v 13.048177 h 1.97656 q 3.38021,0 5.15625,-1.675781 1.79037,-1.675781 1.79037,-4.869792 0,-3.179687 -1.77604,-4.841146 -1.77605,-1.661458 -5.17058,-1.661458 z m -5.51432,-4.167969 h 5.8151 q 4.86979,0 7.2474,0.701823 2.39193,0.6875 4.09635,2.348958 1.50391,1.446615 2.23438,3.33724 0.73047,1.890625 0.73047,4.282552 0,2.420573 -0.73047,4.325521 -0.73047,1.890625 -2.23438,3.33724 -1.71875,1.661458 -4.125,2.363281 -2.40625,0.6875 -7.21875,0.6875 h -5.8151 z"
       style="font-style:normal;font-variant:normal;font-weight:bold;font-stretch:normal;font-family:sans-serif;-inkscape-font-specification:'sans-serif Bold';fill:#003b57;fill-opacity:1"
       id="path848" /></g><g
     aria-label="DATABASE"
     transform="matrix(1.0984278,0,0,1.0984278,-22.212261,108.00352)"
     style="font-style:normal;font-weight:normal;font-size:29.33333397px;line-height:1.25;font-family:sans-serif;letter-spacing:0px;word-spacing:0px;fill:#003b57;fill-opacity:1;stroke:none"
     id="flowRoot4543"><path
       d="m 180.35352,25.541667 v 13.048177 h 1.97656 q 3.38021,0 5.15625,-1.675781 1.79036,-1.675781 1.79036,-4.869792 0,-3.179687 -1.77604,-4.841146 -1.77604,-1.661458 -5.17057,-1.661458 z m -5.51433,-4.167969 h 5.81511 q 4.86979,0 7.24739,0.701823 2.39193,0.6875 4.09636,2.348958 1.5039,1.446615 2.23437,3.33724 0.73047,1.890625 0.73047,4.282552 0,2.420573 -0.73047,4.325521 -0.73047,1.890625 -2.23437,3.33724 -1.71875,1.661458 -4.125,2.363281 -2.40625,0.6875 -7.21875,0.6875 h -5.81511 z"
       style="font-style:normal;font-variant:normal;font-weight:bold;font-stretch:normal;font-family:sans-serif;-inkscape-font-specification:'sans-serif Bold';fill:#003b57;fill-opacity:1"
       id="path851" /><path
       d="m 212.16471,38.86198 h -8.62239 l -1.36068,3.895833 h -5.54297 l 7.92058,-21.384115 h 6.57421 l 7.92058,21.384115 h -5.54297 z m -7.24739,-3.967448 h 5.85807 l -2.92187,-8.507813 z"
       style="font-style:normal;font-variant:normal;font-weight:bold;font-stretch:normal;font-family:sans-serif;-inkscape-font-specification:'sans-serif Bold';fill:#003b57;fill-opacity:1"
       id="path853" /><path
       d="m 217.03451,21.373698 h 19.70833 v 4.167969 H 229.653 v 17.216146 h -5.51433 V 25.541667 h -7.10416 z"
       style="font-style:normal;font-variant:normal;font-weight:bold;font-stretch:normal;font-family:sans-serif;-inkscape-font-specification:'sans-serif Bold';fill:#003b57;fill-opacity:1"
       id="path855" /><path
       d="m 250.26367,38.86198 h -8.62239 l -1.36068,3.895833 h -5.54297 l 7.92057,-21.384115 h 6.57422 l 7.92058,21.384115 h -5.54297 z m -7.24739,-3.967448 h 5.85807 l -2.92187,-8.507813 z"
       style="font-style:normal;font-variant:normal;font-weight:bold;font-stretch:normal;font-family:sans-serif;-inkscape-font-specification:'sans-serif Bold';fill:#003b57;fill-opacity:1"
       id="path857" /><path
       d="m 268.53972,29.652344 q 1.30338,0 1.97656,-0.572917 0.67318,-0.572916 0.67318,-1.690104 0,-1.102864 -0.67318,-1.675781 -0.67318,-0.58724 -1.97656,-0.58724 h -3.05078 v 4.526042 z m 0.1862,9.352865 q 1.66146,0 2.49218,-0.701823 0.84506,-0.701823 0.84506,-2.119792 0,-1.389323 -0.83073,-2.076823 -0.83073,-0.701823 -2.50651,-0.701823 h -3.23698 v 5.600261 z m 5.1276,-7.691407 q 1.77604,0.515625 2.75,1.904948 0.97396,1.389323 0.97396,3.408855 0,3.09375 -2.09115,4.611979 -2.09114,1.518229 -6.35937,1.518229 h -9.15235 V 21.373698 h 8.27865 q 4.45443,0 6.44531,1.346354 2.00521,1.346354 2.00521,4.311198 0,1.561198 -0.73047,2.664063 -0.73047,1.088541 -2.11979,1.618489 z"
       style="font-style:normal;font-variant:normal;font-weight:bold;font-stretch:normal;font-family:sans-serif;-inkscape-font-specification:'sans-serif Bold';fill:#003b57;fill-opacity:1"
       id="path859" /><path
       d="m 295.29493,38.86198 h -8.6224 l -1.36068,3.895833 h -5.54296 l 7.92057,-21.384115 h 6.57422 l 7.92057,21.384115 h -5.54297 z m -7.2474,-3.967448 h 5.85807 l -2.92187,-8.507813 z"
       style="font-style:normal;font-variant:normal;font-weight:bold;font-stretch:normal;font-family:sans-serif;-inkscape-font-specification:'sans-serif Bold';fill:#003b57;fill-opacity:1"
       id="path861" /><path
       d="m 319.88738,22.046875 v 4.526042 q -1.76172,-0.787761 -3.4375,-1.188802 -1.67579,-0.401042 -3.16537,-0.401042 -1.97656,0 -2.92187,0.544271 -0.94532,0.544271 -0.94532,1.690104 0,0.859375 0.63021,1.346354 0.64453,0.472657 2.32031,0.816407 l 2.34896,0.472656 q 3.56641,0.716146 5.07031,2.177083 1.50391,1.460938 1.50391,4.153646 0,3.537761 -2.10547,5.270834 -2.09114,1.71875 -6.40234,1.71875 -2.03386,0 -4.08203,-0.386719 -2.04818,-0.386719 -4.09636,-1.145833 v -4.654948 q 2.04818,1.088541 3.95313,1.647135 1.91927,0.544271 3.69531,0.544271 1.80469,0 2.76432,-0.601563 0.95964,-0.601562 0.95964,-1.71875 0,-1.002604 -0.65886,-1.546875 -0.64453,-0.544271 -2.59244,-0.973958 l -2.13412,-0.472656 q -3.20833,-0.6875 -4.69791,-2.191407 -1.47527,-1.503906 -1.47527,-4.053385 0,-3.194011 2.0625,-4.912761 2.06251,-1.71875 5.92969,-1.71875 1.76172,0 3.6237,0.272136 1.86198,0.257812 3.85287,0.78776 z"
       style="font-style:normal;font-variant:normal;font-weight:bold;font-stretch:normal;font-family:sans-serif;-inkscape-font-specification:'sans-serif Bold';fill:#003b57;fill-opacity:1"
       id="path863" /><path
       d="M 326.14649,21.373698 H 341.028 v 4.167969 h -9.36719 v 3.981771 h 8.8086 v 4.167969 h -8.8086 v 4.898437 h 9.68229 v 4.167969 h -15.19661 z"
       style="font-style:normal;font-variant:normal;font-weight:bold;font-stretch:normal;font-family:sans-serif;-inkscape-font-specification:'sans-serif Bold';fill:#003b57;fill-opacity:1"
       id="path865" /></g></svg>